<svg xmlns="http://www.w3.org/2000/svg" xmlns:xlink="http://www.w3.org/1999/xlink" width="500" zoomAndPan="magnify" viewBox="0 0 375 374.999991" height="500" preserveAspectRatio="xMidYMid meet" version="1.0"><defs><g/><clipPath id="725961b0a4"><path d="M 30.457031 226 L 103.207031 226 L 103.207031 326.460938 L 30.457031 326.460938 Z M 30.457031 226 " clip-rule="nonzero"/></clipPath><clipPath id="2550e280b5"><path d="M 218.746094 287.023438 L 253.996094 287.023438 L 253.996094 332 L 218.746094 332 Z M 218.746094 287.023438 " clip-rule="nonzero"/></clipPath></defs><g clip-path="url(#725961b0a4)"><path fill="#000000" d="M 102.675781 254.359375 L 81.332031 254.359375 L 103.417969 290.742188 L 72.878906 290.742188 L 72.878906 326.425781 L 44.089844 326.425781 L 44.089844 262.070312 L 52.269531 262.070312 L 30.457031 226.078125 L 99.132812 226.078125 Z M 102.675781 254.359375 " fill-opacity="1" fill-rule="nonzero"/></g><g clip-path="url(#2550e280b5)"><path fill="#000000" d="M 253.304688 291.390625 C 252.902344 290.871094 252.121094 290.238281 250.695312 290.191406 C 248.152344 290.105469 246.953125 292.152344 246.644531 293.390625 C 245.523438 296.808594 244.230469 301.984375 243.226562 306.253906 C 243.296875 305.273438 243.382812 304.039062 243.382812 304.039062 C 243.382812 304.027344 243.382812 304.019531 243.382812 304.011719 L 243.382812 303.984375 C 243.382812 303.015625 243.0625 302.183594 242.449219 301.570312 C 241.433594 300.558594 240.007812 300.53125 239.847656 300.53125 L 239.808594 300.53125 C 238.589844 300.570312 237.789062 300.996094 237.273438 301.464844 C 237.09375 301.015625 236.847656 300.617188 236.53125 300.28125 C 235.855469 299.5625 234.9375 299.179688 233.800781 299.144531 C 233.589844 299.128906 232.425781 299.101562 231.453125 299.984375 C 230.714844 300.644531 230.324219 301.605469 230.28125 302.832031 C 230.28125 302.835938 230.28125 302.835938 230.28125 302.835938 C 230.28125 302.835938 230.199219 304.34375 230.121094 305.785156 C 228.566406 299.996094 226.136719 291.628906 226.019531 291.230469 C 225.464844 289.328125 224.59375 288.085938 223.429688 287.539062 C 222.441406 287.074219 221.582031 287.273438 221.246094 287.386719 C 220.386719 287.578125 219.707031 288.046875 219.277344 288.746094 C 218.925781 289.316406 218.746094 290.027344 218.746094 290.851562 C 218.746094 291.734375 218.953125 292.472656 218.996094 292.609375 L 219 292.628906 C 221.253906 299.703125 223.328125 307.976562 223.753906 309.703125 C 223.746094 309.808594 223.429688 313.683594 223.417969 313.84375 L 220.742188 317.9375 C 220.703125 317.992188 220.683594 318.058594 220.683594 318.125 C 220.683594 318.160156 220.691406 318.195312 220.699219 318.230469 L 224.957031 331.726562 C 225.003906 331.871094 225.140625 331.96875 225.289062 331.96875 L 245.203125 331.96875 C 245.355469 331.96875 245.488281 331.871094 245.535156 331.726562 L 248.855469 321.121094 C 248.867188 321.089844 248.871094 321.058594 248.871094 321.023438 L 248.875 320.898438 C 248.925781 318.070312 249.601562 314.234375 249.628906 314.070312 L 249.632812 314.050781 C 250.453125 308.933594 252.839844 299.066406 253.625 295.824219 L 253.855469 294.871094 C 253.914062 294.597656 253.992188 294.152344 253.992188 293.636719 C 253.992188 292.929688 253.84375 292.089844 253.304688 291.390625 Z M 253.304688 291.390625 " fill-opacity="1" fill-rule="nonzero"/></g><path fill="#ffffff" d="M 224.769531 312.238281 L 226.160156 309.980469 L 229.949219 310.023438 C 228.878906 305.4375 224.851562 291.570312 224.851562 291.570312 C 223.707031 287.640625 221.597656 288.554688 221.597656 288.554688 C 219.183594 288.992188 220.160156 292.261719 220.160156 292.261719 C 222.46875 299.5 224.539062 307.796875 224.984375 309.605469 Z M 250.671875 291.253906 C 248.570312 291.0625 247.808594 293.746094 247.808594 293.746094 C 245.632812 300.378906 242.785156 313.761719 242.773438 313.835938 C 241.898438 319.183594 238.6875 318.796875 238.6875 318.796875 C 236.910156 318.875 235.828125 317.410156 235.828125 317.410156 L 235.363281 317.871094 C 238.765625 320.1875 238.738281 324.808594 238.6875 325.125 C 238.609375 325.585938 238.078125 325.578125 238.078125 325.578125 C 237.539062 325.5 237.449219 325.125 237.449219 325.125 C 236.832031 316.097656 228.636719 317.253906 228.636719 317.253906 C 227.640625 316.8125 228.402344 316.019531 228.402344 316.019531 C 231.882812 315.402344 234.433594 316.945312 234.433594 316.945312 C 239.691406 312.703125 234.898438 310.929688 234.898438 310.929688 L 226.78125 310.929688 L 221.984375 318.257812 L 225.929688 330.757812 L 244.566406 330.757812 L 247.65625 320.878906 C 247.710938 317.875 248.429688 313.859375 248.429688 313.859375 C 249.394531 307.855469 252.511719 295.304688 252.667969 294.605469 C 252.824219 293.902344 253.226562 291.484375 250.671875 291.253906 Z M 236.523438 316.484375 C 237.449219 317.949219 238.765625 317.640625 238.765625 317.640625 C 241.316406 317.484375 241.472656 313.9375 241.472656 313.9375 L 242.167969 303.984375 C 242.167969 301.746094 239.847656 301.746094 239.847656 301.746094 C 237.371094 301.824219 237.375 303.90625 237.375 303.90625 L 236.910156 310.851562 C 239.769531 313.550781 236.523438 316.484375 236.523438 316.484375 Z M 236.367188 303.058594 C 236.367188 303.058594 236.445312 300.433594 233.738281 300.359375 C 233.738281 300.359375 231.574219 300.203125 231.496094 302.902344 L 231.109375 310 L 235.789062 309.984375 Z M 236.367188 303.058594 " fill-opacity="1" fill-rule="nonzero"/><g fill="#000000" fill-opacity="1"><g transform="translate(83.764363, 325.949979)"><g><path d="M 15.28125 0.5 C 11.726562 0.5 8.953125 -0.601562 6.953125 -2.8125 C 4.953125 -5.019531 3.953125 -8.070312 3.953125 -11.96875 L 3.953125 -29.40625 L 7.609375 -29.40625 L 7.609375 -12.21875 C 7.609375 -9.226562 8.265625 -6.960938 9.578125 -5.421875 C 10.890625 -3.878906 12.789062 -3.109375 15.28125 -3.109375 C 20.40625 -3.109375 22.96875 -6.144531 22.96875 -12.21875 L 22.96875 -29.40625 L 26.671875 -29.40625 L 26.671875 -11.96875 C 26.671875 -8.070312 25.660156 -5.019531 23.640625 -2.8125 C 21.628906 -0.601562 18.84375 0.5 15.28125 0.5 Z M 15.28125 0.5 "/></g></g></g><g fill="#000000" fill-opacity="1"><g transform="translate(114.382354, 325.949979)"><g><path d="M 14.0625 0.546875 C 11.71875 0.546875 9.679688 0.148438 7.953125 -0.640625 C 6.234375 -1.441406 4.90625 -2.5625 3.96875 -4 C 3.03125 -5.445312 2.546875 -7.125 2.515625 -9.03125 L 6.21875 -9.03125 C 6.269531 -7.15625 7.015625 -5.675781 8.453125 -4.59375 C 9.898438 -3.519531 11.769531 -2.984375 14.0625 -2.984375 C 16.132812 -2.984375 17.78125 -3.390625 19 -4.203125 C 20.21875 -5.015625 20.828125 -6.148438 20.828125 -7.609375 C 20.828125 -8.972656 20.238281 -10.066406 19.0625 -10.890625 C 17.882812 -11.722656 15.96875 -12.445312 13.3125 -13.0625 C 9.695312 -13.925781 7.050781 -15.035156 5.375 -16.390625 C 3.695312 -17.753906 2.859375 -19.570312 2.859375 -21.84375 C 2.859375 -24.332031 3.800781 -26.304688 5.6875 -27.765625 C 7.582031 -29.222656 10.140625 -29.953125 13.359375 -29.953125 C 16.660156 -29.953125 19.269531 -29.125 21.1875 -27.46875 C 23.101562 -25.8125 24.078125 -23.554688 24.109375 -20.703125 L 20.453125 -20.703125 C 20.421875 -22.472656 19.769531 -23.867188 18.5 -24.890625 C 17.226562 -25.910156 15.515625 -26.421875 13.359375 -26.421875 C 11.253906 -26.421875 9.609375 -26.003906 8.421875 -25.171875 C 7.234375 -24.347656 6.640625 -23.238281 6.640625 -21.84375 C 6.640625 -20.632812 7.191406 -19.617188 8.296875 -18.796875 C 9.398438 -17.972656 11.378906 -17.207031 14.234375 -16.5 C 17.984375 -15.582031 20.65625 -14.429688 22.25 -13.046875 C 23.851562 -11.660156 24.65625 -9.890625 24.65625 -7.734375 C 24.65625 -5.179688 23.695312 -3.160156 21.78125 -1.671875 C 19.863281 -0.191406 17.289062 0.546875 14.0625 0.546875 Z M 14.0625 0.546875 "/></g></g></g><g fill="#000000" fill-opacity="1"><g transform="translate(141.556348, 325.949979)"><g><path d="M 4.28125 0 L 4.28125 -29.40625 L 7.984375 -29.40625 L 7.984375 0 Z M 4.28125 0 "/></g></g></g><g fill="#000000" fill-opacity="1"><g transform="translate(153.820351, 325.949979)"><g><path d="M 17.640625 0.546875 C 14.671875 0.546875 12.035156 -0.101562 9.734375 -1.40625 C 7.441406 -2.707031 5.648438 -4.503906 4.359375 -6.796875 C 3.078125 -9.097656 2.4375 -11.734375 2.4375 -14.703125 C 2.4375 -17.691406 3.078125 -20.328125 4.359375 -22.609375 C 5.648438 -24.898438 7.441406 -26.695312 9.734375 -28 C 12.035156 -29.300781 14.671875 -29.953125 17.640625 -29.953125 C 20.640625 -29.953125 23.28125 -29.300781 25.5625 -28 C 27.84375 -26.695312 29.632812 -24.898438 30.9375 -22.609375 C 32.238281 -20.328125 32.890625 -17.691406 32.890625 -14.703125 C 32.890625 -11.734375 32.238281 -9.097656 30.9375 -6.796875 C 29.632812 -4.503906 27.84375 -2.707031 25.5625 -1.40625 C 23.28125 -0.101562 20.640625 0.546875 17.640625 0.546875 Z M 6.21875 -14.703125 C 6.21875 -12.429688 6.695312 -10.425781 7.65625 -8.6875 C 8.625 -6.957031 9.96875 -5.601562 11.6875 -4.625 C 13.414062 -3.644531 15.398438 -3.15625 17.640625 -3.15625 C 19.910156 -3.15625 21.898438 -3.644531 23.609375 -4.625 C 25.316406 -5.601562 26.648438 -6.957031 27.609375 -8.6875 C 28.578125 -10.425781 29.0625 -12.429688 29.0625 -14.703125 C 29.0625 -16.992188 28.578125 -19 27.609375 -20.71875 C 26.648438 -22.445312 25.316406 -23.800781 23.609375 -24.78125 C 21.898438 -25.757812 19.910156 -26.25 17.640625 -26.25 C 15.398438 -26.25 13.414062 -25.757812 11.6875 -24.78125 C 9.96875 -23.800781 8.625 -22.445312 7.65625 -20.71875 C 6.695312 -19 6.21875 -16.992188 6.21875 -14.703125 Z M 6.21875 -14.703125 "/></g></g></g><g fill="#000000" fill-opacity="1"><g transform="translate(189.100343, 325.949979)"><g><path d="M 4.28125 0 L 4.28125 -29.40625 L 7.765625 -29.40625 L 24.03125 -6.390625 L 24.03125 -29.40625 L 27.640625 -29.40625 L 27.640625 0 L 24.1875 0 L 7.9375 -23.015625 L 7.9375 0 Z M 4.28125 0 "/></g></g></g><g fill="#000000" fill-opacity="1"><g transform="translate(221.026077, 325.949979)"><g/></g><g transform="translate(231.442076, 325.949979)"><g/></g><g transform="translate(241.858075, 325.949979)"><g/></g></g><g fill="#000000" fill-opacity="1"><g transform="translate(252.279977, 325.949979)"><g><path d="M 4.28125 0 L 4.28125 -29.40625 L 22.140625 -29.40625 L 22.140625 -25.953125 L 7.984375 -25.953125 L 7.984375 -16.671875 L 21.078125 -16.671875 L 21.078125 -13.265625 L 7.984375 -13.265625 L 7.984375 -3.4375 L 22.59375 -3.4375 L 22.59375 0 Z M 4.28125 0 "/></g></g></g><g fill="#000000" fill-opacity="1"><g transform="translate(277.605968, 325.949979)"><g><path d="M 4.28125 0 L 4.28125 -29.40625 L 15.671875 -29.40625 C 18.492188 -29.40625 20.75 -28.695312 22.4375 -27.28125 C 24.132812 -25.863281 24.984375 -23.96875 24.984375 -21.59375 C 24.984375 -20.164062 24.644531 -18.90625 23.96875 -17.8125 C 23.300781 -16.71875 22.367188 -15.863281 21.171875 -15.25 C 22.679688 -14.632812 23.832031 -13.722656 24.625 -12.515625 C 25.425781 -11.304688 25.828125 -9.878906 25.828125 -8.234375 C 25.828125 -5.679688 24.960938 -3.671875 23.234375 -2.203125 C 21.515625 -0.734375 19.175781 0 16.21875 0 Z M 7.984375 -3.4375 L 16.125 -3.4375 C 18.03125 -3.4375 19.492188 -3.867188 20.515625 -4.734375 C 21.535156 -5.609375 22.046875 -6.832031 22.046875 -8.40625 C 22.046875 -9.96875 21.523438 -11.175781 20.484375 -12.03125 C 19.453125 -12.882812 17.988281 -13.3125 16.09375 -13.3125 L 7.984375 -13.3125 Z M 7.984375 -16.671875 L 15.578125 -16.671875 C 17.398438 -16.671875 18.789062 -17.078125 19.75 -17.890625 C 20.71875 -18.703125 21.203125 -19.835938 21.203125 -21.296875 C 21.203125 -22.773438 20.710938 -23.921875 19.734375 -24.734375 C 18.753906 -25.546875 17.367188 -25.953125 15.578125 -25.953125 L 7.984375 -25.953125 Z M 7.984375 -16.671875 "/></g></g></g></svg>