<?xml version="1.0" encoding="UTF-8" standalone="no" ?>
<!DOCTYPE svg PUBLIC "-//W3C//DTD SVG 1.1//EN" "http://www.w3.org/Graphics/SVG/1.1/DTD/svg11.dtd">
<svg xmlns="http://www.w3.org/2000/svg" xmlns:xlink="http://www.w3.org/1999/xlink" version="1.1" width="1080" height="1080" viewBox="0 0 1080 1080" xml:space="preserve">
<desc>Created with Fabric.js 5.2.4</desc>
<defs>
</defs>
<g transform="matrix(1 0 0 1 540 540)" id="71eea31f-60cc-4b39-8400-e315e4d83097"  >
<rect style="stroke: none; stroke-width: 1; stroke-dasharray: none; stroke-linecap: butt; stroke-dashoffset: 0; stroke-linejoin: miter; stroke-miterlimit: 4; fill: rgb(255,255,255); fill-rule: nonzero; opacity: 1; visibility: hidden;" vector-effect="non-scaling-stroke"  x="-540" y="-540" rx="0" ry="0" width="1080" height="1080" />
</g>
<g transform="matrix(1 0 0 1 540 540)" id="57c9ca05-951b-4bbb-ae93-509fd040e8f7"  >
</g>
<g transform="matrix(2.46 0 0 2.46 540 516.24)"  >
<g style="" vector-effect="non-scaling-stroke"   >
		<g transform="matrix(1.33 0 0 1.33 -133.47 -0.98)" clip-path="url(#CLIPPATH_3)"  >
<clipPath id="CLIPPATH_3" >
	<path transform="matrix(1 0 0 1 -0.11 -0.02) translate(-66.83, -276.23)" id="ceab44237a" d="M 30.457031 226 L 103.207031 226 L 103.207031 326.460938 L 30.457031 326.460938 Z M 30.457031 226" stroke-linecap="round" />
</clipPath>
<path style="stroke: none; stroke-width: 1; stroke-dasharray: none; stroke-linecap: butt; stroke-dashoffset: 0; stroke-linejoin: miter; stroke-miterlimit: 4; fill: rgb(0,0,0); fill-rule: nonzero; opacity: 1;" vector-effect="non-scaling-stroke"  transform=" translate(-66.94, -276.25)" d="M 102.675781 254.359375 L 81.332031 254.359375 L 103.417969 290.742188 L 72.878906 290.742188 L 72.878906 326.425781 L 44.089844 326.425781 L 44.089844 262.070312 L 52.269531 262.070312 L 30.457031 226.078125 L 99.132812 226.078125 Z M 102.675781 254.359375" stroke-linecap="round" />
</g>
		<g transform="matrix(1.33 0 0 1.33 89.05 40.87)" clip-path="url(#CLIPPATH_4)"  >
<clipPath id="CLIPPATH_4" >
	<path transform="matrix(1 0 0 1 0.03 0.01) translate(-233.85, -307.65)" id="cf9de9b372" d="M 214.699219 287.398438 L 253 287.398438 L 253 327.898438 L 214.699219 327.898438 Z M 214.699219 287.398438" stroke-linecap="round" />
</clipPath>
<path style="stroke: none; stroke-width: 1; stroke-dasharray: none; stroke-linecap: butt; stroke-dashoffset: 0; stroke-linejoin: miter; stroke-miterlimit: 4; fill: rgb(0,0,0); fill-rule: nonzero; opacity: 1;" vector-effect="non-scaling-stroke"  transform=" translate(-233.82, -307.64)" d="M 215.515625 290.414062 C 214.636719 291.304688 214.464844 293.367188 215.007812 296.535156 L 216.023438 302.46875 C 216.339844 304.3125 216.597656 306.492188 216.597656 307.320312 L 216.597656 324.050781 C 216.597656 326.132812 218.261719 327.828125 220.3125 327.828125 L 240.199219 327.828125 C 240.421875 327.875 240.648438 327.898438 240.886719 327.898438 L 240.890625 327.898438 L 248.183594 327.890625 C 249.78125 327.890625 251.15625 326.75 251.484375 325.160156 L 252.878906 318.367188 C 253.257812 316.511719 252.085938 314.695312 250.261719 314.304688 C 248.433594 313.917969 246.644531 315.109375 246.265625 316.964844 L 245.433594 321.027344 L 244.402344 321.03125 L 244.402344 308.054688 C 244.402344 307.707031 244.820312 305.992188 245.417969 304.097656 L 248.425781 294.550781 C 248.667969 293.789062 249.792969 289.929688 248.382812 288.496094 C 247.675781 287.78125 246.742188 287.386719 245.746094 287.386719 C 244.75 287.386719 243.8125 287.78125 243.109375 288.496094 C 242.292969 289.328125 241.867188 291.027344 241.453125 292.667969 C 241.300781 293.277344 241.15625 293.847656 241.003906 294.34375 L 237.992188 303.886719 C 237.890625 304.214844 237.722656 304.523438 237.53125 304.820312 C 237.589844 304.945312 237.644531 305.066406 237.691406 305.195312 C 237.738281 305.324219 237.78125 305.449219 237.8125 305.582031 C 237.90625 305.921875 237.957031 306.285156 237.957031 306.65625 L 237.957031 312.488281 C 237.957031 314.769531 236.136719 316.621094 233.890625 316.621094 C 232.476562 316.621094 231.230469 315.878906 230.503906 314.765625 C 229.773438 315.878906 228.527344 316.621094 227.109375 316.621094 C 224.871094 316.621094 223.042969 314.769531 223.042969 312.488281 L 223.042969 307.714844 C 223.042969 306.96875 223.242188 306.269531 223.585938 305.660156 C 223.644531 305.554688 223.710938 305.453125 223.78125 305.351562 C 223.847656 305.253906 223.917969 305.160156 223.992188 305.066406 C 223.765625 304.683594 223.601562 304.261719 223.535156 303.8125 L 222.398438 296.429688 C 222.347656 296.101562 222.300781 295.738281 222.253906 295.359375 C 222.007812 293.488281 221.730469 291.363281 220.792969 290.410156 C 220.085938 289.695312 219.152344 289.300781 218.15625 289.300781 C 217.15625 289.300781 216.21875 289.695312 215.515625 290.414062 Z M 215.515625 290.414062" stroke-linecap="round" />
</g>
		<g transform="matrix(1.33 0 0 1.33 80.1 44.15)"  >
<path style="stroke: none; stroke-width: 1; stroke-dasharray: none; stroke-linecap: butt; stroke-dashoffset: 0; stroke-linejoin: miter; stroke-miterlimit: 4; fill: rgb(0,0,0); fill-rule: nonzero; opacity: 1;" vector-effect="non-scaling-stroke"  transform=" translate(-227.11, -310.1)" d="M 227.109375 304.957031 C 226.203125 304.957031 225.402344 305.414062 224.910156 306.109375 C 224.847656 306.199219 224.789062 306.300781 224.738281 306.402344 C 224.679688 306.5 224.628906 306.597656 224.589844 306.707031 C 224.464844 307.019531 224.394531 307.359375 224.394531 307.714844 L 224.394531 312.488281 C 224.394531 314.011719 225.609375 315.246094 227.109375 315.246094 C 228.605469 315.246094 229.824219 314.011719 229.824219 312.488281 L 229.824219 307.714844 C 229.824219 307.675781 229.816406 307.640625 229.8125 307.601562 C 229.808594 307.488281 229.800781 307.371094 229.78125 307.261719 C 229.761719 307.140625 229.726562 307.027344 229.695312 306.917969 C 229.355469 305.785156 228.332031 304.957031 227.109375 304.957031 Z M 227.109375 304.957031" stroke-linecap="round" />
</g>
		<g transform="matrix(1.33 0 0 1.33 89.14 43.44)"  >
<path style="stroke: none; stroke-width: 1; stroke-dasharray: none; stroke-linecap: butt; stroke-dashoffset: 0; stroke-linejoin: miter; stroke-miterlimit: 4; fill: rgb(0,0,0); fill-rule: nonzero; opacity: 1;" vector-effect="non-scaling-stroke"  transform=" translate(-233.89, -309.57)" d="M 233.890625 303.894531 C 232.394531 303.894531 231.175781 305.136719 231.175781 306.65625 L 231.175781 312.488281 C 231.175781 314.011719 232.394531 315.246094 233.890625 315.246094 C 235.390625 315.246094 236.605469 314.011719 236.605469 312.488281 L 236.605469 306.65625 C 236.605469 306.539062 236.585938 306.429688 236.574219 306.316406 C 236.558594 306.1875 236.539062 306.0625 236.503906 305.9375 C 236.191406 304.765625 235.144531 303.894531 233.890625 303.894531 Z M 233.890625 303.894531" stroke-linecap="round" />
</g>
		<g transform="matrix(1.33 0 0 1.33 -104.26 46.01)"  >
<path style="stroke: none; stroke-width: 1; stroke-dasharray: none; stroke-linecap: butt; stroke-dashoffset: 0; stroke-linejoin: miter; stroke-miterlimit: 4; fill: rgb(0,0,0); fill-rule: nonzero; opacity: 1;" vector-effect="non-scaling-stroke"  transform=" translate(-15.31, 14.45)" d="M 15.28125 0.5 C 11.726562 0.5 8.953125 -0.601562 6.953125 -2.8125 C 4.953125 -5.019531 3.953125 -8.070312 3.953125 -11.96875 L 3.953125 -29.40625 L 7.609375 -29.40625 L 7.609375 -12.21875 C 7.609375 -9.226562 8.265625 -6.960938 9.578125 -5.421875 C 10.890625 -3.878906 12.789062 -3.109375 15.28125 -3.109375 C 20.40625 -3.109375 22.96875 -6.144531 22.96875 -12.21875 L 22.96875 -29.40625 L 26.671875 -29.40625 L 26.671875 -11.96875 C 26.671875 -8.070312 25.660156 -5.019531 23.640625 -2.8125 C 21.628906 -0.601562 18.84375 0.5 15.28125 0.5 Z M 15.28125 0.5" stroke-linecap="round" />
</g>
		<g transform="matrix(1.33 0 0 1.33 -65.74 45.68)"  >
<path style="stroke: none; stroke-width: 1; stroke-dasharray: none; stroke-linecap: butt; stroke-dashoffset: 0; stroke-linejoin: miter; stroke-miterlimit: 4; fill: rgb(0,0,0); fill-rule: nonzero; opacity: 1;" vector-effect="non-scaling-stroke"  transform=" translate(-13.59, 14.7)" d="M 14.0625 0.546875 C 11.71875 0.546875 9.679688 0.148438 7.953125 -0.640625 C 6.234375 -1.441406 4.90625 -2.5625 3.96875 -4 C 3.03125 -5.445312 2.546875 -7.125 2.515625 -9.03125 L 6.21875 -9.03125 C 6.269531 -7.15625 7.015625 -5.675781 8.453125 -4.59375 C 9.898438 -3.519531 11.769531 -2.984375 14.0625 -2.984375 C 16.132812 -2.984375 17.78125 -3.390625 19 -4.203125 C 20.21875 -5.015625 20.828125 -6.148438 20.828125 -7.609375 C 20.828125 -8.972656 20.238281 -10.066406 19.0625 -10.890625 C 17.882812 -11.722656 15.96875 -12.445312 13.3125 -13.0625 C 9.695312 -13.925781 7.050781 -15.035156 5.375 -16.390625 C 3.695312 -17.753906 2.859375 -19.570312 2.859375 -21.84375 C 2.859375 -24.332031 3.800781 -26.304688 5.6875 -27.765625 C 7.582031 -29.222656 10.140625 -29.953125 13.359375 -29.953125 C 16.660156 -29.953125 19.269531 -29.125 21.1875 -27.46875 C 23.101562 -25.8125 24.078125 -23.554688 24.109375 -20.703125 L 20.453125 -20.703125 C 20.421875 -22.472656 19.769531 -23.867188 18.5 -24.890625 C 17.226562 -25.910156 15.515625 -26.421875 13.359375 -26.421875 C 11.253906 -26.421875 9.609375 -26.003906 8.421875 -25.171875 C 7.234375 -24.347656 6.640625 -23.238281 6.640625 -21.84375 C 6.640625 -20.632812 7.191406 -19.617188 8.296875 -18.796875 C 9.398438 -17.972656 11.378906 -17.207031 14.234375 -16.5 C 17.984375 -15.582031 20.65625 -14.429688 22.25 -13.046875 C 23.851562 -11.660156 24.65625 -9.890625 24.65625 -7.734375 C 24.65625 -5.179688 23.695312 -3.160156 21.78125 -1.671875 C 19.863281 -0.191406 17.289062 0.546875 14.0625 0.546875 Z M 14.0625 0.546875" stroke-linecap="round" />
</g>
		<g transform="matrix(1.33 0 0 1.33 -39.44 45.68)"  >
<path style="stroke: none; stroke-width: 1; stroke-dasharray: none; stroke-linecap: butt; stroke-dashoffset: 0; stroke-linejoin: miter; stroke-miterlimit: 4; fill: rgb(0,0,0); fill-rule: nonzero; opacity: 1;" vector-effect="non-scaling-stroke"  transform=" translate(-6.13, 14.7)" d="M 4.28125 0 L 4.28125 -29.40625 L 7.984375 -29.40625 L 7.984375 0 Z M 4.28125 0" stroke-linecap="round" />
</g>
		<g transform="matrix(1.33 0 0 1.33 -7.72 45.68)"  >
<path style="stroke: none; stroke-width: 1; stroke-dasharray: none; stroke-linecap: butt; stroke-dashoffset: 0; stroke-linejoin: miter; stroke-miterlimit: 4; fill: rgb(0,0,0); fill-rule: nonzero; opacity: 1;" vector-effect="non-scaling-stroke"  transform=" translate(-17.66, 14.7)" d="M 17.640625 0.546875 C 14.671875 0.546875 12.035156 -0.101562 9.734375 -1.40625 C 7.441406 -2.707031 5.648438 -4.503906 4.359375 -6.796875 C 3.078125 -9.097656 2.4375 -11.734375 2.4375 -14.703125 C 2.4375 -17.691406 3.078125 -20.328125 4.359375 -22.609375 C 5.648438 -24.898438 7.441406 -26.695312 9.734375 -28 C 12.035156 -29.300781 14.671875 -29.953125 17.640625 -29.953125 C 20.640625 -29.953125 23.28125 -29.300781 25.5625 -28 C 27.84375 -26.695312 29.632812 -24.898438 30.9375 -22.609375 C 32.238281 -20.328125 32.890625 -17.691406 32.890625 -14.703125 C 32.890625 -11.734375 32.238281 -9.097656 30.9375 -6.796875 C 29.632812 -4.503906 27.84375 -2.707031 25.5625 -1.40625 C 23.28125 -0.101562 20.640625 0.546875 17.640625 0.546875 Z M 6.21875 -14.703125 C 6.21875 -12.429688 6.695312 -10.425781 7.65625 -8.6875 C 8.625 -6.957031 9.96875 -5.601562 11.6875 -4.625 C 13.414062 -3.644531 15.398438 -3.15625 17.640625 -3.15625 C 19.910156 -3.15625 21.898438 -3.644531 23.609375 -4.625 C 25.316406 -5.601562 26.648438 -6.957031 27.609375 -8.6875 C 28.578125 -10.425781 29.0625 -12.429688 29.0625 -14.703125 C 29.0625 -16.992188 28.578125 -19 27.609375 -20.71875 C 26.648438 -22.445312 25.316406 -23.800781 23.609375 -24.78125 C 21.898438 -25.757812 19.910156 -26.25 17.640625 -26.25 C 15.398438 -26.25 13.414062 -25.757812 11.6875 -24.78125 C 9.96875 -23.800781 8.625 -22.445312 7.65625 -20.71875 C 6.695312 -19 6.21875 -16.992188 6.21875 -14.703125 Z M 6.21875 -14.703125" stroke-linecap="round" />
</g>
		<g transform="matrix(1.33 0 0 1.33 37.05 45.68)"  >
<path style="stroke: none; stroke-width: 1; stroke-dasharray: none; stroke-linecap: butt; stroke-dashoffset: 0; stroke-linejoin: miter; stroke-miterlimit: 4; fill: rgb(0,0,0); fill-rule: nonzero; opacity: 1;" vector-effect="non-scaling-stroke"  transform=" translate(-15.96, 14.7)" d="M 4.28125 0 L 4.28125 -29.40625 L 7.765625 -29.40625 L 24.03125 -6.390625 L 24.03125 -29.40625 L 27.640625 -29.40625 L 27.640625 0 L 24.1875 0 L 7.9375 -23.015625 L 7.9375 0 Z M 4.28125 0" stroke-linecap="round" />
</g>
		<g transform="matrix(1.33 0 0 1.33 131.82 45.68)"  >
<path style="stroke: none; stroke-width: 1; stroke-dasharray: none; stroke-linecap: butt; stroke-dashoffset: 0; stroke-linejoin: miter; stroke-miterlimit: 4; fill: rgb(0,0,0); fill-rule: nonzero; opacity: 1;" vector-effect="non-scaling-stroke"  transform=" translate(-13.44, 14.7)" d="M 4.28125 0 L 4.28125 -29.40625 L 22.140625 -29.40625 L 22.140625 -25.953125 L 7.984375 -25.953125 L 7.984375 -16.671875 L 21.078125 -16.671875 L 21.078125 -13.265625 L 7.984375 -13.265625 L 7.984375 -3.4375 L 22.59375 -3.4375 L 22.59375 0 Z M 4.28125 0" stroke-linecap="round" />
</g>
		<g transform="matrix(1.33 0 0 1.33 167.74 45.68)"  >
<path style="stroke: none; stroke-width: 1; stroke-dasharray: none; stroke-linecap: butt; stroke-dashoffset: 0; stroke-linejoin: miter; stroke-miterlimit: 4; fill: rgb(0,0,0); fill-rule: nonzero; opacity: 1;" vector-effect="non-scaling-stroke"  transform=" translate(-15.05, 14.7)" d="M 4.28125 0 L 4.28125 -29.40625 L 15.671875 -29.40625 C 18.492188 -29.40625 20.75 -28.695312 22.4375 -27.28125 C 24.132812 -25.863281 24.984375 -23.96875 24.984375 -21.59375 C 24.984375 -20.164062 24.644531 -18.90625 23.96875 -17.8125 C 23.300781 -16.71875 22.367188 -15.863281 21.171875 -15.25 C 22.679688 -14.632812 23.832031 -13.722656 24.625 -12.515625 C 25.425781 -11.304688 25.828125 -9.878906 25.828125 -8.234375 C 25.828125 -5.679688 24.960938 -3.671875 23.234375 -2.203125 C 21.515625 -0.734375 19.175781 0 16.21875 0 Z M 7.984375 -3.4375 L 16.125 -3.4375 C 18.03125 -3.4375 19.492188 -3.867188 20.515625 -4.734375 C 21.535156 -5.609375 22.046875 -6.832031 22.046875 -8.40625 C 22.046875 -9.96875 21.523438 -11.175781 20.484375 -12.03125 C 19.453125 -12.882812 17.988281 -13.3125 16.09375 -13.3125 L 7.984375 -13.3125 Z M 7.984375 -16.671875 L 15.578125 -16.671875 C 17.398438 -16.671875 18.789062 -17.078125 19.75 -17.890625 C 20.71875 -18.703125 21.203125 -19.835938 21.203125 -21.296875 C 21.203125 -22.773438 20.710938 -23.921875 19.734375 -24.734375 C 18.753906 -25.546875 17.367188 -25.953125 15.578125 -25.953125 L 7.984375 -25.953125 Z M 7.984375 -16.671875" stroke-linecap="round" />
</g>
</g>
</g>
</svg>