<svg xmlns="http://www.w3.org/2000/svg" xmlns:xlink="http://www.w3.org/1999/xlink" width="500" zoomAndPan="magnify" viewBox="0 0 375 374.999991" height="500" preserveAspectRatio="xMidYMid meet" version="1.0"><defs><clipPath id="f1d57a0d63"><path d="M 37.5 60 L 222.75 60 L 222.75 314.957031 L 37.5 314.957031 Z M 37.5 60 " clip-rule="nonzero"/></clipPath><clipPath id="b3c41cd563"><path d="M 198 194 L 330 194 L 330 328 L 198 328 Z M 198 194 " clip-rule="nonzero"/></clipPath><clipPath id="778dd2682c"><path d="M 193.5 228.28125 L 295.917969 187.464844 L 337.5625 291.972656 L 235.148438 332.789062 Z M 193.5 228.28125 " clip-rule="nonzero"/></clipPath><clipPath id="ef75e66f3e"><path d="M 193.5 228.28125 L 295.917969 187.464844 L 337.5625 291.972656 L 235.148438 332.789062 Z M 193.5 228.28125 " clip-rule="nonzero"/></clipPath><clipPath id="987c4fac04"><path d="M 193.5 228.28125 L 295.917969 187.464844 L 337.5625 291.972656 L 235.148438 332.789062 Z M 193.5 228.28125 " clip-rule="nonzero"/></clipPath><clipPath id="53beb18a80"><path d="M 194.039062 228.027344 L 296.019531 187.386719 L 337.679688 291.929688 L 235.699219 332.566406 Z M 194.039062 228.027344 " clip-rule="nonzero"/></clipPath><clipPath id="288434d4ff"><path d="M 239 259 L 261 259 L 261 288 L 239 288 Z M 239 259 " clip-rule="nonzero"/></clipPath><clipPath id="daed08f346"><path d="M 193.5 228.28125 L 295.917969 187.464844 L 337.5625 291.972656 L 235.148438 332.789062 Z M 193.5 228.28125 " clip-rule="nonzero"/></clipPath><clipPath id="8ad14b0f4b"><path d="M 193.5 228.28125 L 295.917969 187.464844 L 337.5625 291.972656 L 235.148438 332.789062 Z M 193.5 228.28125 " clip-rule="nonzero"/></clipPath><clipPath id="c7467e3a48"><path d="M 193.5 228.28125 L 295.917969 187.464844 L 337.5625 291.972656 L 235.148438 332.789062 Z M 193.5 228.28125 " clip-rule="nonzero"/></clipPath><clipPath id="260a7893dd"><path d="M 256 249 L 278 249 L 278 281 L 256 281 Z M 256 249 " clip-rule="nonzero"/></clipPath><clipPath id="57c3ccad34"><path d="M 193.5 228.28125 L 295.917969 187.464844 L 337.5625 291.972656 L 235.148438 332.789062 Z M 193.5 228.28125 " clip-rule="nonzero"/></clipPath><clipPath id="7dff980195"><path d="M 193.5 228.28125 L 295.917969 187.464844 L 337.5625 291.972656 L 235.148438 332.789062 Z M 193.5 228.28125 " clip-rule="nonzero"/></clipPath><clipPath id="f9152ecc38"><path d="M 193.5 228.28125 L 295.917969 187.464844 L 337.5625 291.972656 L 235.148438 332.789062 Z M 193.5 228.28125 " clip-rule="nonzero"/></clipPath></defs><g clip-path="url(#f1d57a0d63)"><path fill="#000000" d="M 220.671875 131.972656 L 166.53125 131.972656 L 222.550781 224.25 L 145.09375 224.25 L 145.09375 314.75 L 72.078125 314.75 L 72.078125 151.535156 L 92.828125 151.535156 L 37.5 60.242188 L 211.683594 60.242188 Z M 220.671875 131.972656 " fill-opacity="1" fill-rule="nonzero"/></g><g clip-path="url(#b3c41cd563)"><g clip-path="url(#778dd2682c)"><g clip-path="url(#ef75e66f3e)"><g clip-path="url(#987c4fac04)"><g clip-path="url(#53beb18a80)"><path fill="#000000" d="M 199.296875 234.980469 C 197.902344 238.203125 199.574219 243.703125 204.257812 251.304688 L 213.027344 265.550781 C 215.757812 269.984375 218.671875 275.339844 219.523438 277.476562 L 236.730469 320.652344 C 238.871094 326.023438 244.988281 328.65625 250.367188 326.511719 L 302.585938 305.703125 C 303.222656 305.589844 303.84375 305.410156 304.46875 305.164062 L 304.476562 305.160156 L 323.613281 297.503906 C 327.8125 295.828125 330.253906 291.449219 329.472656 287 L 326.152344 268.015625 C 325.238281 262.828125 320.296875 259.367188 315.097656 260.273438 C 309.902344 261.183594 306.433594 266.132812 307.347656 271.320312 L 309.335938 282.675781 L 306.636719 283.761719 L 293.289062 250.273438 C 292.933594 249.375 292.269531 244.515625 291.886719 238.996094 L 289.96875 211.214844 C 289.820312 209 288.800781 197.859375 283.632812 195.640625 C 281.042969 194.539062 278.179688 194.496094 275.5625 195.539062 C 272.949219 196.582031 270.894531 198.582031 269.785156 201.160156 C 268.492188 204.160156 269.121094 208.992188 269.730469 213.660156 C 269.953125 215.382812 270.160156 217.007812 270.261719 218.449219 L 272.171875 246.230469 C 272.238281 247.175781 272.125 248.15625 271.917969 249.117188 C 272.199219 249.375 272.476562 249.636719 272.726562 249.917969 C 272.980469 250.199219 273.222656 250.484375 273.445312 250.785156 C 274.039062 251.570312 274.550781 252.449219 274.933594 253.410156 L 280.929688 268.460938 C 283.273438 274.339844 280.390625 281.03125 274.5 283.378906 C 270.785156 284.859375 266.75 284.253906 263.691406 282.132812 C 262.921875 285.777344 260.410156 288.992188 256.6875 290.476562 C 250.808594 292.820312 244.105469 289.949219 241.761719 284.070312 L 236.851562 271.753906 C 236.082031 269.824219 235.890625 267.804688 236.167969 265.882812 C 236.214844 265.542969 236.285156 265.214844 236.363281 264.882812 C 236.433594 264.5625 236.515625 264.238281 236.625 263.925781 C 235.628906 263.167969 234.769531 262.25 234.128906 261.171875 L 223.558594 243.304688 C 223.089844 242.507812 222.589844 241.625 222.078125 240.695312 C 219.5 236.121094 216.589844 230.925781 213.152344 229.453125 C 210.5625 228.347656 207.699219 228.308594 205.082031 229.347656 C 202.457031 230.394531 200.40625 232.394531 199.296875 234.980469 Z M 199.296875 234.980469 " fill-opacity="1" fill-rule="nonzero"/></g></g></g></g></g><g clip-path="url(#288434d4ff)"><g clip-path="url(#daed08f346)"><g clip-path="url(#8ad14b0f4b)"><g clip-path="url(#c7467e3a48)"><path fill="#000000" d="M 244.695312 260.378906 C 242.3125 261.328125 240.683594 263.339844 240.113281 265.652344 C 240.03125 265.957031 239.988281 266.273438 239.953125 266.589844 C 239.90625 266.898438 239.871094 267.210938 239.875 267.53125 C 239.867188 268.464844 240.039062 269.421875 240.402344 270.335938 L 245.3125 282.652344 C 246.875 286.582031 251.34375 288.5 255.273438 286.929688 C 259.207031 285.363281 261.140625 280.894531 259.574219 276.96875 L 254.664062 264.652344 C 254.625 264.550781 254.5625 264.472656 254.515625 264.375 C 254.386719 264.082031 254.242188 263.789062 254.074219 263.527344 C 253.902344 263.242188 253.699219 262.984375 253.5 262.734375 C 251.441406 260.164062 247.90625 259.097656 244.695312 260.378906 Z M 244.695312 260.378906 " fill-opacity="1" fill-rule="nonzero"/></g></g></g></g><g clip-path="url(#260a7893dd)"><g clip-path="url(#57c3ccad34)"><g clip-path="url(#7dff980195)"><g clip-path="url(#f9152ecc38)"><path fill="#000000" d="M 261.414062 250.539062 C 257.484375 252.105469 255.554688 256.582031 257.117188 260.507812 L 263.117188 275.558594 C 264.679688 279.484375 269.15625 281.398438 273.089844 279.832031 C 277.019531 278.265625 278.945312 273.800781 277.378906 269.875 L 271.382812 254.824219 C 271.261719 254.523438 271.09375 254.257812 270.945312 253.984375 C 270.769531 253.664062 270.589844 253.367188 270.375 253.082031 C 268.347656 250.382812 264.703125 249.226562 261.414062 250.539062 Z M 261.414062 250.539062 " fill-opacity="1" fill-rule="nonzero"/></g></g></g></g></svg>